Coordinates
version=1
nRows=43
nColumns=12
inDegrees=yes

Units are S.I. units (second, meters, Newtons, ...)
Angles are in degrees

endheader
time	SC_y	SC_z	SC_x	AC_y	AC_z	AC_x	GH_y	GH_z	GH_yy	EL_x	PS_y
       0.0              -22.07          28.42          24.86          58.62         -7.411         -10.72          132.1          34.68         -2.656          73.52          62.85
   0.04864              -22.07          28.42          24.86          58.62         -7.411         -10.71          132.0          34.67         -2.633          73.53          62.86
   0.09727              -22.08          28.41          24.85          58.61         -7.411         -10.71          132.0          34.66         -2.609          73.54          62.86
    0.1459              -22.08          28.41          24.85          58.61         -7.412         -10.71          132.0          34.65         -2.584          73.54          62.87
    0.1945              -22.09           28.4          24.85          58.61         -7.412         -10.71          131.9          34.64         -2.557          73.55          62.87
    0.2432              -22.09           28.4          24.84          58.61         -7.412         -10.71          131.9          34.63         -2.528          73.56          62.88
    0.2918               -22.1          28.39          24.84          58.61         -7.412         -10.71          131.8          34.62         -2.497          73.57          62.88
    0.3404               -22.1          28.38          24.83          58.61         -7.412         -10.71          131.8          34.61         -2.464          73.58          62.89
    0.3891              -22.11          28.37          24.83          58.61         -7.412         -10.71          131.7           34.6         -2.429          73.59           62.9
    0.4377              -22.11          28.37          24.82          58.61         -7.413          -10.7          131.7          34.59         -2.391           73.6           62.9
    0.4864              -22.12          28.36          24.81          58.61         -7.413          -10.7          131.6          34.58         -2.351          73.61          62.91
     0.535              -22.13          28.35          24.81          58.61         -7.413          -10.7          131.5          34.56         -2.307          73.63          62.92
    0.5836              -22.13          28.34           24.8          58.61         -7.413          -10.7          131.5          34.55          -2.26          73.64          62.93
    0.6323              -22.14          28.33          24.79          58.61         -7.414          -10.7          131.4          34.53         -2.209          73.66          62.94
    0.6809              -22.15          28.32          24.78          58.61         -7.414         -10.69          131.3          34.51         -2.154          73.67          62.95
    0.7295              -22.16          28.31          24.77          58.61         -7.414         -10.69          131.2          34.49         -2.094          73.69          62.96
    0.7782              -22.17          28.29          24.76          58.61         -7.415         -10.69          131.1          34.47         -2.029          73.71          62.97
    0.8268              -22.18          28.28          24.75           58.6         -7.415         -10.69          131.0          34.45         -1.958          73.73          62.99
    0.8754               -22.2          28.26          24.74           58.6         -7.416         -10.68          130.9          34.42         -1.881          73.75           63.0
    0.9241              -22.21          28.24          24.73           58.6         -7.416         -10.68          130.8           34.4         -1.796          73.78          63.02
    0.9727              -22.23          28.22          24.71           58.6         -7.417         -10.67          130.7          34.37         -1.703          73.81          63.04
     1.021              -22.24           28.2           24.7           58.6         -7.417         -10.67          130.5          34.33         -1.601          73.84          63.06
      1.07              -22.26          28.18          24.68           58.6         -7.418         -10.66          130.3           34.3         -1.488          73.87          63.08
     1.119              -22.28          28.15          24.66           58.6         -7.419         -10.66          130.2          34.26         -1.363          73.91           63.1
     1.167              -22.31          28.13          24.64          58.59          -7.42         -10.65          130.0          34.21         -1.224          73.95          63.13
     1.216              -22.33          28.09          24.61          58.59         -7.421         -10.65          129.7          34.16         -1.068           74.0          63.16
     1.265              -22.36          28.06          24.59          58.59         -7.422         -10.64          129.5          34.11        -0.8944          74.05          63.19
     1.313              -22.39          28.02          24.56          58.59         -7.423         -10.63          129.2          34.04        -0.6988          74.11          63.23
     1.362              -22.43          27.97          24.52          58.58         -7.424         -10.62          128.9          33.97        -0.4777          74.18          63.27
      1.41              -22.47          27.92          24.48          58.58         -7.426         -10.61          128.5          33.89        -0.2266          74.25          63.32
     1.459              -22.52          27.86          24.44          58.57         -7.427          -10.6          128.1           33.8        0.05986          74.34          63.38
     1.508              -22.57          27.79          24.39          58.57         -7.429         -10.58          127.6          33.69         0.3887          74.44          63.44
     1.556              -22.63          27.71          24.33          58.56         -7.431         -10.57          127.0          33.57         0.7683          74.55          63.51
     1.605              -22.71          27.62          24.26          58.56         -7.434         -10.55          126.4          33.43          1.209          74.68           63.6
     1.654              -22.79          27.52          24.18          58.55         -7.437         -10.52          125.6          33.26          1.725          74.84           63.7
     1.702              -22.89          27.39          24.08          58.54         -7.441          -10.5          124.7          33.06          2.334          75.02          63.81
     1.751              -23.01          27.24          23.97          58.53         -7.445         -10.47          123.7          32.83          3.057          75.24          63.95
     1.799              -23.16          27.06          23.83          58.51          -7.45         -10.43          122.4          32.55          3.924           75.5          64.12
     1.848              -23.33          26.84          23.67           58.5         -7.456         -10.38          120.9          32.21          4.972          75.82          64.32
     1.897              -23.54          26.58          23.47          58.48         -7.464         -10.33          119.0           31.8          6.253           76.2          64.57
     1.945               -23.8          26.25          23.22          58.46         -7.473         -10.26          116.7          31.29          7.834          76.68          64.87
     1.994              -24.13          25.84          22.91          58.42         -7.485         -10.17          113.8          30.65          9.805          77.27          65.25
     2.043              -24.54          25.33          22.53          58.39           -7.5         -10.06          110.1          29.85          12.29          78.02          65.73
